Coordinates
version=1
nRows=25
nColumns=33
inDegrees=yes

Units are S.I. units (second, meters, Newtons, ...)
Angles are in degrees.

endheader
time	ground_thorax_rot_x	ground_thorax_rot_y	ground_thorax_rot_z	ground_thorax_tx	ground_thorax_ty	ground_thorax_tz	clav_prot_r	clav_elev_r	scapula_abduction_r	scapula_elevation_r	scapula_upward_rot_r	scapula_winging_r	shoulder_elv_r	plane_of_elev_r	axial_rot_r	elbow_flexion_r	pro_sup_r	wrist_flex_r	wrist_dev_r	clav_prot_l	clav_elev_l	scapula_abduction_l	scapula_elevation_l	scapula_upward_rot_l	scapula_winging_l	shoulder_elv_l	plane_of_elev_l	axial_rot_l	elbow_flexion_l	pro_sup_l	wrist_flex_l	wrist_dev_l	
8.8600	-36.532426	-1.291631	3.598082	-57.810656	809.625559	0.721624	5.166739	-45.000000	44.999998	-45.000000	-9.280185	-91.752006	-4975.642819	29.070655	76.219036	728.460764	-1.664683	16.142693	13.646750	17.156175	42.174946	-44.999999	-42.757145	-29.952966	5479.363233	-5693.944978	23.917441	-28.361921	1087.966298	12.757202	13.316781	-20.073742	
8.8700	-36.473689	-1.465625	3.590396	-55.943606	806.798228	1.496408	5.282784	-45.000000	44.999996	-45.000000	-9.464260	-91.525848	-4975.789030	28.940876	76.384812	728.438696	0.003705	16.157798	13.522467	16.950720	41.884612	-44.999999	-42.228065	-29.671807	5479.293315	-5694.126562	23.863175	-28.498844	1087.630731	12.503496	13.294917	-19.818586	
8.8800	-36.426184	-1.617735	3.556811	-54.173066	804.100571	2.269397	5.386581	-45.000000	44.999993	-45.000000	-9.620118	-91.327876	-4975.942133	28.825840	76.553356	728.419005	1.547725	16.168103	13.387507	16.737938	41.584148	-44.999998	-41.710733	-29.376212	5479.212808	-5694.270638	23.804306	-28.577330	1087.307210	12.296443	13.298994	-19.582251	
8.8900	-36.384880	-1.784714	3.514768	-52.600722	801.673339	3.048873	5.481928	-45.000000	44.999988	-45.000000	-9.797814	-91.162467	-4976.078802	28.737292	76.766957	728.378110	2.592422	16.158937	13.288777	16.532371	41.262064	-44.999996	-41.205877	-29.105532	5479.177507	-5694.407856	23.771197	-28.616287	1087.009899	12.243421	13.302212	-19.386375	
8.9000	-36.357671	-1.945152	3.444044	-51.254193	799.537306	3.821749	5.554478	-45.000000	44.999978	-45.000000	-9.960123	-91.026132	-4976.204304	28.666724	76.997705	728.327946	3.271334	16.136025	13.214516	16.343859	40.935214	-44.999992	-40.727287	-28.836280	5479.165215	-5694.520066	23.748029	-28.575800	1086.736621	12.318865	13.312343	-19.230821	
8.9100	-36.350185	-2.090550	3.333395	-50.174566	797.724842	4.575548	5.592415	-45.000000	44.999961	-45.000000	-10.089315	-90.908033	-4976.311968	28.603807	77.228435	728.272926	3.632089	16.102093	13.173727	16.194672	40.630725	-44.999986	-40.297646	-28.563222	5479.170261	-5694.618218	23.734834	-28.436058	1086.487797	12.517761	13.320389	-19.118101	
8.9200	-36.358779	-2.229281	3.199698	-49.380894	796.227501	5.292953	5.602292	-45.000000	44.999931	-45.000000	-10.188591	-90.814083	-4976.400894	28.544736	77.436002	728.223391	3.804607	16.066293	13.157084	16.080248	40.363467	-44.999975	-39.916079	-28.302934	5479.196062	-5694.698734	23.723403	-28.198491	1086.270095	12.806569	13.315818	-19.045669	
8.9300	-36.390564	-2.348494	3.037741	-48.878902	795.012651	5.956967	5.585593	-45.000000	44.999876	-45.000000	-10.245617	-90.738209	-4976.480241	28.482405	77.600185	728.178924	3.922138	16.033877	13.156257	16.010558	40.167338	-44.999955	-39.608594	-28.067857	5479.227031	-5694.767398	23.718869	-27.883235	1086.080178	13.148343	13.301953	-19.007738	
8.9400	-36.438859	-2.464387	2.874742	-48.668279	794.039728	6.555030	5.558209	-45.000000	44.999778	-45.000000	-10.291595	-90.684377	-4976.546442	28.417772	77.723010	728.143753	4.055311	16.011373	13.167308	15.972042	40.040688	-44.999920	-39.368984	-27.887862	5479.270600	-5694.829589	23.718811	-27.527612	1085.919798	13.514684	13.266259	-18.998352	
8.9500	-36.506559	-2.569056	2.713672	-48.742084	793.264647	7.079806	5.534979	-45.000000	44.999602	-45.000000	-10.338893	-90.662440	-4976.611713	28.359871	77.812639	728.108872	4.243703	15.998633	13.174030	15.957507	39.980850	-44.999857	-39.209340	-27.789598	5479.314274	-5694.881980	23.735618	-27.181463	1085.785045	13.886984	13.232401	-19.012601	
8.9600	-36.584563	-2.681554	2.579534	-49.087598	792.644602	7.528958	5.525623	-45.000000	44.999287	-45.000000	-10.420214	-90.671829	-4976.663950	28.307207	77.893560	728.084209	4.507685	16.000171	13.176915	15.952846	39.964581	-44.999744	-39.106713	-27.777351	5479.365929	-5694.922862	23.751449	-26.870729	1085.671676	14.242992	13.183693	-19.043227	
8.9700	-36.677676	-2.784097	2.456831	-49.688393	792.141711	7.904542	5.535825	-45.000000	44.998722	-45.000000	-10.526954	-90.719268	-4976.722057	28.266999	77.977578	728.058896	4.854690	16.011962	13.158559	15.961153	39.983260	-44.999542	-39.068916	-27.854989	5479.408846	-5694.941670	23.776283	-26.638097	1085.573966	14.574463	13.156029	-19.086227	
8.9800	-36.777480	-2.896660	2.357155	-50.526853	791.725628	8.211552	5.556219	-45.000000	44.997712	-45.000000	-10.681104	-90.776803	-4976.759708	28.220836	78.094708	728.050704	5.287502	16.037255	13.140994	15.986733	40.018802	-44.999179	-39.071241	-27.988845	5479.454994	-5694.953688	23.782090	-26.479012	1085.483239	14.867775	13.107110	-19.133102	
8.9900	-36.887040	-3.009966	2.274363	-51.587144	791.374326	8.456513	5.597255	-45.000000	44.995899	-45.000000	-10.873516	-90.862929	-4976.797880	28.177846	78.246823	728.052598	5.798039	16.073060	13.102092	16.024141	40.059016	-44.998529	-39.114869	-28.188040	5479.495183	-5694.944458	23.779923	-26.427710	1085.405654	15.128858	13.075253	-19.182531	
9.0000	-36.995000	-3.139810	2.214660	-52.857460	791.073589	8.646026	5.649034	-45.000000	44.992659	-45.000000	-11.116139	-90.958864	-4976.813445	28.128444	78.451590	728.077804	6.376307	16.119975	13.060145	16.075912	40.100252	-44.997366	-39.170770	-28.418101	5479.552966	-5694.930136	23.753135	-26.466308	1085.342743	15.355934	13.007876	-19.228792	
9.0100	-37.106645	-3.268688	2.166480	-54.331403	790.815350	8.785900	5.720605	-45.000000	44.986836	-45.000000	-11.382832	-91.086781	-4976.834936	28.078962	78.693290	728.109320	7.005663	16.172883	12.990093	16.130312	40.141350	-44.995279	-39.255328	-28.691799	5479.608048	-5694.896884	23.713212	-26.622488	1085.310972	15.572553	12.959493	-19.274694	
9.0200	-37.214360	-3.412747	2.135129	-56.007709	790.595909	8.880632	5.801596	-45.000000	44.976457	-45.000000	-11.697515	-91.218645	-4976.838076	28.019622	78.982923	728.156988	7.677138	16.229965	12.915978	16.193337	40.177936	-44.991554	-39.349141	-28.973383	5479.679224	-5694.869986	23.647491	-26.863110	1085.298964	15.792313	12.870652	-19.313249	
9.0300	-37.321452	-3.564273	2.122628	-57.889582	790.414245	8.933459	5.901126	-45.000000	44.957726	-45.000000	-12.050944	-91.368526	-4976.836478	27.952445	79.293907	728.209391	8.381682	16.288800	12.821885	16.255530	40.210542	-44.984841	-39.465395	-29.277478	5479.748044	-5694.838347	23.561633	-27.199339	1085.319827	16.048017	12.785892	-19.348957	
9.0400	-37.418569	-3.733287	2.128534	-59.982773	790.270763	8.946708	6.010822	-45.000000	44.924558	-45.000000	-12.471600	-91.517040	-4976.812920	27.882433	79.625700	728.269884	9.113741	16.346509	12.725568	16.320601	40.239698	-44.972927	-39.580327	-29.582413	5479.835892	-5694.817075	23.457368	-27.599207	1085.360344	16.357223	12.660318	-19.377592	
9.0500	-37.510368	-3.923887	2.169687	-62.293943	790.166761	8.922114	6.137182	-45.000000	44.864070	-45.000000	-12.973219	-91.672049	-4976.772404	27.812201	79.956365	728.328519	9.865999	16.402463	12.618549	16.382300	40.265146	-44.951275	-39.714274	-29.933044	5479.917886	-5694.789552	23.345399	-28.051263	1085.429863	16.743293	12.534492	-19.403847	
9.0600	-37.594972	-4.168697	2.281309	-64.828996	790.104194	8.860979	6.289876	-45.000000	44.758718	-45.000000	-13.639629	-91.829847	-4976.709606	27.760728	80.287787	728.392372	10.641685	16.454328	12.508337	16.463859	40.281836	-44.913362	-39.859441	-30.404492	5479.997093	-5694.749356	23.256637	-28.496982	1085.507627	17.212012	12.361013	-19.420578	
9.0700	-37.687048	-4.481938	2.495868	-67.591966	790.085942	8.764052	6.466387	-45.000000	44.561634	-45.000000	-14.539881	-91.968350	-4976.624053	27.728674	80.596513	728.459108	11.436842	16.505123	12.392891	16.562972	40.291666	-44.843015	-40.055471	-31.059461	5480.031403	-5694.681349	23.206971	-28.880652	1085.596137	17.766780	12.181112	-19.433839	
9.0800	-37.789821	-4.881651	2.834352	-70.584290	790.115220	8.631410	6.655952	-45.000000	44.231958	-45.000000	-15.745249	-92.073865	-4976.519811	27.730547	80.886257	728.531539	12.240152	16.554538	12.261715	16.680886	40.309790	-44.723793	-40.302232	-31.915609	5480.018554	-5694.579658	23.208335	-29.154334	1085.685837	18.388690	11.999622	-19.445762	
9.0900	-37.939240	-5.480671	3.454097	-73.804841	790.195206	8.462191	6.845801	-45.000000	43.576211	-45.000000	-17.613867	-92.040417	-4976.372541	27.783898	81.132394	728.607753	13.070373	16.606381	12.120350	16.847238	40.336865	-44.491281	-40.709634	-33.187785	5479.843645	-5694.413409	23.283237	-29.142997	1085.773287	19.064071	11.845591	-19.460780	
9.1000	-38.137282	-6.301552	4.373291	-77.249903	790.327753	8.254795	7.047247	-45.000000	42.583578	-45.000000	-20.166871	-91.874365	-4976.189513	27.892216	81.381045	728.689352	13.924942	16.659824	11.954889	17.069478	40.378770	-44.128156	-41.278466	-34.870379	5479.509656	-5694.182757	23.425425	-28.882395	1085.849329	19.748262	11.710359	-19.475039	
